<svg id="bac-search-icon" xmlns="http://www.w3.org/2000/svg" xmlns:xlink="http://www.w3.org/1999/xlink" width="37" height="40" viewBox="0 0 37 40">
  <defs>
    <linearGradient id="linear-gradient" x1="0.5" x2="0.5" y2="1" gradientUnits="objectBoundingBox">
      <stop offset="0" stop-color="#1ede1f"/>
      <stop offset="1" stop-color="#0dc70e"/>
    </linearGradient>
  </defs>
  <path id="Caminho_9" data-name="Caminho 9" d="M36.575,37.209,25.249,24.388A14.354,14.354,0,0,0,26.533,6.172,14.679,14.679,0,0,0,8.785,1.238a14.439,14.439,0,0,0,5.843,27.719,14.54,14.54,0,0,0,7.987-2.37L33.993,39.46a1.726,1.726,0,0,0,2.857-.423A1.692,1.692,0,0,0,36.575,37.209ZM3.44,14.465A11.189,11.189,0,1,1,14.629,25.547,11.136,11.136,0,0,1,3.44,14.465Z" transform="translate(-0.003 -0.039)" fill="url(#linear-gradient)"/>
  <g id="Caminho_8" data-name="Caminho 8" transform="translate(16.581 10.416)" opacity="0.17">
    <path id="Caminho_10" data-name="Caminho 10" d="M10.488,18.864a.859.859,0,0,1-.464-1.58,11.01,11.01,0,0,0,4.054-4.363A13.741,13.741,0,0,0,14.851,7.1a.859.859,0,0,1,.79-.928.893.893,0,0,1,.928.79,15.734,15.734,0,0,1-.91,6.665,12.951,12.951,0,0,1-4.724,5.153.928.928,0,0,1-.447.086Z" transform="translate(-9.631 -6.169)" fill="#fff"/>
  </g>
</svg>
