<svg xmlns="http://www.w3.org/2000/svg" viewBox="0 0 47.67 48.33"><defs><style>.cls-1{fill:#0c0c0c;}.cls-2{fill:none;}</style></defs><title>search-icon</title><g id="Camada_2" data-name="Camada 2"><g id="meucu"><path class="cls-1" d="M19.24,33a13.5,13.5,0,0,0,0-27,13.5,13.5,0,0,0,0,27Zm0-24A10.5,10.5,0,1,1,8.88,19.5,10.44,10.44,0,0,1,19.24,9Z"/><path class="cls-2" d="M27.56,27.94a4.37,4.37,0,0,0-.22,5.85A16,16,0,0,1,19.24,36a16.5,16.5,0,0,1,0-33A16.4,16.4,0,0,1,35.51,19.5a16.59,16.59,0,0,1-2.18,8.22A4.22,4.22,0,0,0,27.56,27.94Z"/><path class="cls-2" d="M29.65,30.06a1.32,1.32,0,0,1,.93-.39,1.3,1.3,0,0,1,.93.39l.11.12a16.41,16.41,0,0,1-1.85,1.88l-.12-.12A1.35,1.35,0,0,1,29.65,30.06Z"/><path class="cls-2" d="M33.71,32.3,44.33,43.06a1.35,1.35,0,0,1,0,1.88,1.29,1.29,0,0,1-1.85,0L31.86,34.18A19.31,19.31,0,0,0,33.71,32.3Z"/><path class="cls-1" d="M19.24,0A19.39,19.39,0,0,1,38.47,19.5a19.59,19.59,0,0,1-3,10.37l-1.9-1.93a1.86,1.86,0,0,0-.27-.22,16.59,16.59,0,0,0,2.18-8.22A16.4,16.4,0,0,0,19.24,3a16.5,16.5,0,0,0,0,33,16,16,0,0,0,8.1-2.21c.08.09.14.19.22.27L29.46,36a18.93,18.93,0,0,1-10.22,3A19.39,19.39,0,0,1,0,19.5,19.39,19.39,0,0,1,19.24,0Z"/><path class="cls-1" d="M42.48,44.94a1.29,1.29,0,0,0,1.85,0,1.35,1.35,0,0,0,0-1.88L33.71,32.3a19.24,19.24,0,0,0,1.79-2.43L46.42,40.94a4.36,4.36,0,0,1,0,6.12,4.21,4.21,0,0,1-6,0L29.46,36a19.33,19.33,0,0,0,2.4-1.81Z"/><path class="cls-1" d="M31.62,30.18a17.42,17.42,0,0,0,1.71-2.46,1.86,1.86,0,0,1,.27.22l1.9,1.93a19.24,19.24,0,0,1-1.79,2.43Z"/><path class="cls-1" d="M27.34,33.79a16.71,16.71,0,0,0,2.43-1.73l2.09,2.12A19.33,19.33,0,0,1,29.46,36l-1.9-1.93C27.48,34,27.42,33.88,27.34,33.79Z"/></g></g></svg>